Start = 10.000000, duration = 60, magnitude = 100.000000, direction = 30
datacolumns 10
datarows 202
range 20.29343941 20.3824761
endheader
time	ground_force1_vx	ground_force1_vy	ground_force1_vz	ground_force1_px	ground_force1_py	ground_force1_pz	ground_torque1_x	ground_torque1_y	ground_torque1_z
20.29343941	2.814335177	1.624857172	0	0	0	0	0	0	0
20.29433862	2.833714614	1.636045895	0	0	0	0	0	0	0
20.29523783	2.853093909	1.647234536	0	0	0	0	0	0	0
20.29613705	2.872473061	1.658423095	0	0	0	0	0	0	0
20.29703626	2.891852069	1.66961157	0	0	0	0	0	0	0
20.29793547	2.911230932	1.680799962	0	0	0	0	0	0	0
20.29893109	2.932687419	1.693187871	0	0	0	0	0	0	0
20.29992672	2.954143726	1.705575675	0	0	0	0	0	0	0
20.3	2.955723046	1.706487496	0	0	0	0	0	0	0
20.30000203	2.955766784	1.706512749	0	0	0	0	0	0	0
20.30000406	2.955810523	1.706538001	0	0	0	0	0	0	0
20.30001421	2.956029215	1.706664263	0	0	0	0	0	0	0
20.30006495	2.957122675	1.707295572	0	0	0	0	0	0	0
20.30031864	2.962589968	1.710452116	0	0	0	0	0	0	0
20.30085015	2.974044147	1.717065189	0	0	0	0	0	0	0
20.30138166	2.985498274	1.723678232	0	0	0	0	0	0	0
20.30210702	3.001129957	1.732703189	0	0	0	0	0	0	0
20.30283238	3.016761542	1.741728089	0	0	0	0	0	0	0
20.30373079	3.036122186	1.752905962	0	0	0	0	0	0	0
20.3046292	3.055482679	1.764083747	0	0	0	0	0	0	0
20.30552761	3.074843018	1.775261444	0	0	0	0	0	0	0
20.30642602	3.094203203	1.786439052	0	0	0	0	0	0	0
20.30732443	3.113563234	1.797616571	0	0	0	0	0	0	0
20.30822284	3.132923108	1.808794	0	0	0	0	0	0	0
20.30912125	3.152282826	1.819971338	0	0	0	0	0	0	0
20.31	3.171218757	1.830904003	0	0	0	0	0	0	0
20.31000178	3.171257105	1.830926143	0	0	0	0	0	0	0
20.31000356	3.171295453	1.830948284	0	0	0	0	0	0	0
20.31001246	3.171487194	1.831058985	0	0	0	0	0	0	0
20.31005695	3.172445897	1.831612492	0	0	0	0	0	0	0
20.3102794	3.177239405	1.834380026	0	0	0	0	0	0	0
20.31065944	3.185428811	1.839108182	0	0	0	0	0	0	0
20.31112996	3.195567722	1.844961884	0	0	0	0	0	0	0
20.31172299	3.208346576	1.852339759	0	0	0	0	0	0	0
20.31243597	3.223709853	1.861209752	0	0	0	0	0	0	0
20.31314894	3.239073029	1.870079685	0	0	0	0	0	0	0
20.31391196	3.255514524	1.879572187	0	0	0	0	0	0	0
20.31467498	3.2719559	1.88906462	0	0	0	0	0	0	0
20.31580228	3.296246562	1.90308884	0	0	0	0	0	0	0
20.31692959	3.320536964	1.91711291	0	0	0	0	0	0	0
20.31784148	3.340185619	1.928457066	0	0	0	0	0	0	0
20.31875337	3.359834102	1.939801123	0	0	0	0	0	0	0
20.31966527	3.379482412	1.95114508	0	0	0	0	0	0	0
20.32	3.386694808	1.955309159	0	0	0	0	0	0	0
20.32000125	3.386721845	1.955324769	0	0	0	0	0	0	0
20.32000251	3.386748881	1.955340378	0	0	0	0	0	0	0
20.32000878	3.386884064	1.955418426	0	0	0	0	0	0	0
20.32004015	3.38755998	1.955808666	0	0	0	0	0	0	0
20.320197	3.390939553	1.957759864	0	0	0	0	0	0	0
20.32051205	3.397727653	1.961678975	0	0	0	0	0	0	0
20.32109453	3.41027803	1.968924938	0	0	0	0	0	0	0
20.32167701	3.422828334	1.97617086	0	0	0	0	0	0	0
20.3226517	3.443829217	1.988295725	0	0	0	0	0	0	0
20.3236264	3.464829897	2.000420473	0	0	0	0	0	0	0
20.32460109	3.485830372	2.012545104	0	0	0	0	0	0	0
20.32557579	3.506830643	2.024669616	0	0	0	0	0	0	0
20.32655048	3.527830707	2.036794008	0	0	0	0	0	0	0
20.32752518	3.548830563	2.048918281	0	0	0	0	0	0	0
20.32828006	3.565094381	2.058308201	0	0	0	0	0	0	0
20.32903494	3.581358073	2.067698048	0	0	0	0	0	0	0
20.32978982	3.597621639	2.077087822	0	0	0	0	0	0	0
20.33	3.602149863	2.079702193	0	0	0	0	0	0	0
20.33000135	3.602179014	2.079719023	0	0	0	0	0	0	0
20.33000271	3.602208165	2.079735854	0	0	0	0	0	0	0
20.33000947	3.602353921	2.079820006	0	0	0	0	0	0	0
20.3300433	3.603082699	2.080240766	0	0	0	0	0	0	0
20.33021243	3.606726585	2.082344565	0	0	0	0	0	0	0
20.33071175	3.617484003	2.088555363	0	0	0	0	0	0	0
20.33121106	3.628241366	2.094766129	0	0	0	0	0	0	0
20.33187522	3.642550027	2.103027238	0	0	0	0	0	0	0
20.33271251	3.660588413	2.113441705	0	0	0	0	0	0	0
20.33375248	3.682993166	2.126377096	0	0	0	0	0	0	0
20.3338996	3.686162775	2.12820707	0	0	0	0	0	0	0
20.33398847	3.688077262	2.1293124	0	0	0	0	0	0	0
20.33408733	3.690207112	2.130542069	0	0	0	0	0	0	0
20.33417738	3.692147119	2.131662133	0	0	0	0	0	0	0
20.33420562	3.692755421	2.132013336	0	0	0	0	0	0	0
20.33422032	3.693072194	2.132196225	0	0	0	0	0	0	0
20.3342305	3.693291552	2.132322872	0	0	0	0	0	0	0
20.33423878	3.693469871	2.132425824	0	0	0	0	0	0	0
20.33423988	3.693493643	2.132439549	0	0	0	0	0	0	0
20.33424099	3.693517415	2.132453274	0	0	0	0	0	0	0
20.3342465	3.693636277	2.132521899	0	0	0	0	0	0	0
20.33427409	3.694230585	2.132865022	0	0	0	0	0	0	0
20.33441202	3.69720212	2.134580639	0	0	0	0	0	0	0
20.33510169	3.71205973	2.143158685	0	0	0	0	0	0	0
20.33579135	3.726917231	2.151736667	0	0	0	0	0	0	0
20.33648101	3.741774623	2.160314586	0	0	0	0	0	0	0
20.33717067	3.756631903	2.168892441	0	0	0	0	0	0	0
20.33786033	3.771489073	2.177470232	0	0	0	0	0	0	0
20.33854999	3.786346132	2.186047959	0	0	0	0	0	0	0
20.33923965	3.80120308	2.194625621	0	0	0	0	0	0	0
20.33992932	3.816059915	2.203203219	0	0	0	0	0	0	0
20.34	3.817582586	2.204082334	0	0	0	0	0	0	0
20.34000039	3.817591064	2.204087228	0	0	0	0	0	0	0
20.34000079	3.817599542	2.204092123	0	0	0	0	0	0	0
20.34000275	3.817641931	2.204116596	0	0	0	0	0	0	0
20.34001259	3.817853876	2.204238963	0	0	0	0	0	0	0
20.34006179	3.818913599	2.204850795	0	0	0	0	0	0	0
20.34030775	3.82421221	2.207909949	0	0	0	0	0	0	0
20.34062422	3.831029646	2.211845997	0	0	0	0	0	0	0
20.3407017	3.832698546	2.212809537	0	0	0	0	0	0	0
20.3407677	3.834120295	2.213630385	0	0	0	0	0	0	0
20.34078679	3.834531582	2.213867841	0	0	0	0	0	0	0
20.34080371	3.834896181	2.214078342	0	0	0	0	0	0	0
20.34081261	3.835087796	2.214188971	0	0	0	0	0	0	0
20.3408188	3.835221281	2.214266039	0	0	0	0	0	0	0
20.34082069	3.835261885	2.214289482	0	0	0	0	0	0	0
20.34082139	3.835276928	2.214298167	0	0	0	0	0	0	0
20.34082209	3.835291972	2.214306852	0	0	0	0	0	0	0
20.34082558	3.835367189	2.214350279	0	0	0	0	0	0	0
20.34084304	3.835743277	2.214567414	0	0	0	0	0	0	0
20.34093033	3.837623715	2.215653085	0	0	0	0	0	0	0
20.34136679	3.847025879	2.221081427	0	0	0	0	0	0	0
20.34189697	3.858446844	2.227675324	0	0	0	0	0	0	0
20.34242715	3.869867741	2.234269182	0	0	0	0	0	0	0
20.34316868	3.885841348	2.243491549	0	0	0	0	0	0	0
20.3439102	3.901814823	2.252713839	0	0	0	0	0	0	0
20.34455839	3.915777345	2.260775104	0	0	0	0	0	0	0
20.34520657	3.929739765	2.268836311	0	0	0	0	0	0	0
20.34585475	3.943702082	2.276897459	0	0	0	0	0	0	0
20.34650293	3.957664297	2.284958547	0	0	0	0	0	0	0
20.34715111	3.971626408	2.293019576	0	0	0	0	0	0	0
20.34779929	3.985588416	2.301080545	0	0	0	0	0	0	0
20.34844747	3.99955032	2.309141454	0	0	0	0	0	0	0
20.34909565	4.013512121	2.317202303	0	0	0	0	0	0	0
20.34974383	4.027473816	2.325263092	0	0	0	0	0	0	0
20.35	4.032991642	2.32844881	0	0	0	0	0	0	0
20.35000088	4.033010586	2.328459748	0	0	0	0	0	0	0
20.35000176	4.03302953	2.328470685	0	0	0	0	0	0	0
20.35000616	4.033124251	2.328525372	0	0	0	0	0	0	0
20.35002814	4.033597852	2.328798806	0	0	0	0	0	0	0
20.35013808	4.035965857	2.330165974	0	0	0	0	0	0	0
20.35060801	4.046087998	2.336009995	0	0	0	0	0	0	0
20.35107794	4.056210083	2.341853983	0	0	0	0	0	0	0
20.351759	4.07087953	2.350323393	0	0	0	0	0	0	0
20.35263538	4.089756039	2.36122175	0	0	0	0	0	0	0
20.35338535	4.105909563	2.370547992	0	0	0	0	0	0	0
20.35413532	4.122062944	2.379874151	0	0	0	0	0	0	0
20.35475817	4.13547821	2.387619458	0	0	0	0	0	0	0
20.35538102	4.148893376	2.395364707	0	0	0	0	0	0	0
20.35593221	4.160765045	2.402218819	0	0	0	0	0	0	0
20.3564834	4.172636636	2.409072885	0	0	0	0	0	0	0
20.35703459	4.184508149	2.415926906	0	0	0	0	0	0	0
20.35758578	4.196379583	2.422780882	0	0	0	0	0	0	0
20.35813697	4.208250937	2.429634811	0	0	0	0	0	0	0
20.35868816	4.220122213	2.436488696	0	0	0	0	0	0	0
20.35935082	4.234394218	2.444728641	0	0	0	0	0	0	0
20.36	4.248375695	2.452800851	0	0	0	0	0	0	0
20.36000078	4.248392465	2.452810533	0	0	0	0	0	0	0
20.36000156	4.248409235	2.452820215	0	0	0	0	0	0	0
20.36000545	4.248493084	2.452868625	0	0	0	0	0	0	0
20.36002492	4.248912327	2.453110676	0	0	0	0	0	0	0
20.36012225	4.25100854	2.454320925	0	0	0	0	0	0	0
20.36045773	4.258233815	2.458492439	0	0	0	0	0	0	0
20.36094186	4.268660416	2.46451224	0	0	0	0	0	0	0
20.36160912	4.283031102	2.47280916	0	0	0	0	0	0	0
20.36227638	4.297401669	2.481106011	0	0	0	0	0	0	0
20.36294364	4.311772118	2.489402793	0	0	0	0	0	0	0
20.36361091	4.326142448	2.497699507	0	0	0	0	0	0	0
20.36427817	4.340512658	2.505996152	0	0	0	0	0	0	0
20.36494543	4.354882749	2.514292727	0	0	0	0	0	0	0
20.36561269	4.369252719	2.522589234	0	0	0	0	0	0	0
20.36627996	4.383622569	2.53088567	0	0	0	0	0	0	0
20.36694722	4.397992298	2.539182037	0	0	0	0	0	0	0
20.367526	4.410456535	2.546378267	0	0	0	0	0	0	0
20.36810479	4.42292068	2.553574445	0	0	0	0	0	0	0
20.36908322	4.443990876	2.565739329	0	0	0	0	0	0	0
20.36977036	4.458788277	2.574282612	0	0	0	0	0	0	0
20.37	4.463733411	2.577137686	0	0	0	0	0	0	0
20.37000091	4.463753102	2.577149055	0	0	0	0	0	0	0
20.37000183	4.463772794	2.577160424	0	0	0	0	0	0	0
20.3700064	4.463871253	2.57721727	0	0	0	0	0	0	0
20.37002926	4.464363547	2.577501496	0	0	0	0	0	0	0
20.37014357	4.466825014	2.578922624	0	0	0	0	0	0	0
20.3703757	4.471823828	2.581808691	0	0	0	0	0	0	0
20.37069355	4.47866855	2.585760493	0	0	0	0	0	0	0
20.37114279	4.488342432	2.591345711	0	0	0	0	0	0	0
20.37172727	4.500928638	2.598612361	0	0	0	0	0	0	0
20.37231175	4.513514748	2.605878955	0	0	0	0	0	0	0
20.37291238	4.526448666	2.613346356	0	0	0	0	0	0	0
20.37351302	4.539382483	2.620813698	0	0	0	0	0	0	0
20.37411366	4.552316198	2.628280982	0	0	0	0	0	0	0
20.37471429	4.565249811	2.635748207	0	0	0	0	0	0	0
20.37531493	4.578183322	2.643215374	0	0	0	0	0	0	0
20.37591557	4.591116731	2.650682481	0	0	0	0	0	0	0
20.37675168	4.609120432	2.661076922	0	0	0	0	0	0	0
20.37752977	4.625874624	2.670749959	0	0	0	0	0	0	0
20.37830786	4.642628641	2.680422896	0	0	0	0	0	0	0
20.37897437	4.656979781	2.68870853	0	0	0	0	0	0	0
20.37964087	4.671330792	2.69699409	0	0	0	0	0	0	0
20.38	4.679063453	2.701458544	0	0	0	0	0	0	0
20.38000081	4.679080931	2.701468635	0	0	0	0	0	0	0
20.38000162	4.679098408	2.701478726	0	0	0	0	0	0	0
20.38000568	4.679185797	2.70152918	0	0	0	0	0	0	0
20.38002598	4.679622742	2.70178145	0	0	0	0	0	0	0
20.38012744	4.681807463	2.703042799	0	0	0	0	0	0	0
20.38044517	4.688648551	2.706992503	0	0	0	0	0	0	0
20.3808829	4.698073638	2.71243408	0	0	0	0	0	0	0
20.38132064	4.707498669	2.717875624	0	0	0	0	0	0	0
20.38189837	4.719937871	2.725057401	0	0	0	0	0	0	0
20.3824761	4.732376975	2.732239121	0	0	0	0	0	0	0
